<?xml version="1.0" encoding="utf-8"?>
<!-- Generator: Adobe Illustrator 27.9.4, SVG Export Plug-In . SVG Version: 9.03 Build 54784)  -->
<svg version="1.1" id="Calque_1" xmlns="http://www.w3.org/2000/svg" xmlns:xlink="http://www.w3.org/1999/xlink" x="0px" y="0px"
	 viewBox="0 0 1867 475.9" style="enable-background:new 0 0 1867 475.9;" xml:space="preserve">
<style type="text/css">
	.st0{fill:#f7cc80;}
	.st1{fill:#f7cc80;}
</style>
<g>
	<path class="st0" d="M1290.6,290.7c-6.4-32.4,6.2-67.9,31.6-89s62.6-27.1,93.3-14.9c35.1-40.4,100.3-50.4,145.9-22.4
		c9.5-35.4,43.4-62,79.8-65.8s73.7,13.9,96.4,42.6c13.9,17.5,22.9,41,16.2,62.3c-6,18.9-22.9,32.1-39.9,42.3
		c-88.2,53.2-196.7,57.8-299.6,53.4c-42.7-1.8-85.3-4.9-127.8-9.3c-1.3-1.4,2.5-2.9,2.5-1"/>
</g>
<g>
	<path class="st0" d="M576.4,290.7c6.4-32.4-6.2-67.9-31.6-89s-62.6-27.1-93.3-14.9c-35.1-40.4-100.3-50.4-145.9-22.4
		c-9.5-35.4-43.4-62-79.8-65.8s-73.7,13.9-96.4,42.6c-13.9,17.5-22.9,41-16.2,62.3c6,18.9,22.9,32.1,39.9,42.3
		c88.2,53.2,196.7,57.8,299.6,53.4c42.7-1.8,85.3-4.9,127.8-9.3c1.3-1.4-2.5-2.9-2.5-1"/>
</g>
<path class="st1" d="M1806.6,16.1c-30.1,16.4-53.4,44.9-63.5,77.7c-37.5-8.5-78.4-0.7-110.1,21.1c-31.7,21.8-53.7,57.1-59.2,95.2
	c-38.7-15.5-87-2-112.1,31.3c-22.9-22.7-55.1-35.9-87.3-35.7c-32.3,0.2-63.2,17.5-85.9,40.5c-27.9-35.6-86-42.2-121.2-13.7
	c-4.4-39.4-49.6-60.9-89.2-63.4c-23.4-1.4-47.8-4.4-70.6,0.6c-7,1.5-17.1,8.9-25.5,7.7c-7.5-1.1-13.2-8.7-22.1-14.7
	c-0.1-0.1-0.2-0.1-0.2-0.2c-15.8-10.6-36.5-10.6-52.3,0c-0.1,0.1-0.2,0.1-0.2,0.2c-8.9,6-14.6,13.6-22.1,14.7
	c-8.4,1.2-18.5-6.2-25.5-7.7c-22.8-5-47.2-2-70.6-0.6c-39.6,2.5-84.8,24-89.2,63.4c-35.2-28.5-93.3-21.9-121.2,13.7
	c-22.7-23-53.6-40.3-85.9-40.5c-32.2-0.2-64.4,13-87.3,35.7c-25.1-33.3-73.4-46.8-112.1-31.3c-5.5-38.1-27.5-73.4-59.2-95.2
	c-31.7-21.8-72.6-29.6-110.1-21.1C113.8,61,90.5,32.5,60.4,16.1C41.9,6.1,21,0.6,0,0v475.9h933.5H1867V0
	C1846,0.6,1825.1,6.1,1806.6,16.1z"/>
</svg>
